<svg id="Layer_1" data-name="Layer 1" xmlns="http://www.w3.org/2000/svg" viewBox="0 0 100 100"><defs><style>.cls-1{fill:#231f20;}</style></defs><path class="cls-1" d="M99.69,50c0,1.73,0,3.39.08,5s.12,3,.23,4.25c-2.64-.4-7.48-.84-14.51-1.29s-14.78-.91-23.18-1.37-16.87-.86-25.38-1.22-15.61-.68-21.28-1l-.15,1.21Q21.58,57.9,29,61.4T43.62,69q7.29,4.09,14,8.73a74.76,74.76,0,0,1,11.09,9.2c-1.42,1.62-3,3.6-4.64,5.92l-4,5.63A96.25,96.25,0,0,0,47.11,85.87,191.07,191.07,0,0,0,30.7,73.71Q22.18,68.08,13.9,63.6A100.76,100.76,0,0,0,0,57.14c.1-.81.17-1.87.22-3.19S.3,51.32.3,50s0-2.63-.08-4S.1,43.67,0,42.86A100.76,100.76,0,0,0,13.9,36.4q8.28-4.49,16.8-10.11A191.07,191.07,0,0,0,47.11,14.13,96.25,96.25,0,0,0,60,1.52c1,1.32,2.35,3.16,4,5.55a73.6,73.6,0,0,0,4.64,6,74.76,74.76,0,0,1-11.09,9.2q-6.69,4.64-14,8.73T29,38.6Q21.57,42.1,15.5,44.38l.15,1.06q8.35-.3,21.2-.91l25.46-1.21q12.6-.62,23.18-1.3c7-.45,11.87-.89,14.51-1.29-.11,1.21-.18,2.63-.23,4.25S99.69,48.27,99.69,50Z"/></svg>